<svg width="1200" height="900" viewBox="0 0 1200 900" fill="none" xmlns="http://www.w3.org/2000/svg">
  <rect width="1200" height="900" rx="40" fill="#FFF9EC"/>
  <rect x="40" y="40" width="1120" height="820" rx="28" fill="#FFFFFF" stroke="#F3E7C5" stroke-width="4"/>
  <rect x="120" y="120" width="960" height="80" rx="12" fill="#F3E7C5"/>
  <rect x="120" y="240" width="600" height="24" rx="12" fill="#E9D9A6"/>
  <rect x="120" y="288" width="520" height="20" rx="10" fill="#F3E7C5"/>
  <rect x="120" y="340" width="760" height="18" rx="9" fill="#F7EFD4"/>
  <rect x="120" y="390" width="700" height="18" rx="9" fill="#F7EFD4"/>
  <rect x="120" y="440" width="740" height="18" rx="9" fill="#F7EFD4"/>
  <rect x="120" y="520" width="300" height="40" rx="20" fill="#D4AF37"/>
  <rect x="120" y="600" width="480" height="16" rx="8" fill="#E9D9A6"/>
  <rect x="120" y="630" width="420" height="16" rx="8" fill="#F3E7C5"/>
  <rect x="120" y="720" width="220" height="20" rx="10" fill="#E9D9A6"/>
  <circle cx="960" cy="670" r="90" fill="#F3E7C5" stroke="#D4AF37" stroke-width="8"/>
  <circle cx="960" cy="670" r="58" fill="#FFFFFF" stroke="#D4AF37" stroke-width="6"/>
  <path d="M930 670L950 690L990 640" stroke="#B88A2B" stroke-width="10" stroke-linecap="round" stroke-linejoin="round"/>
  <text x="120" y="185" font-family="Cormorant Garamond, serif" font-size="44" fill="#1A1815">
    Certificate Placeholder
  </text>
</svg>
